<?xml version="1.0" encoding="UTF-8"?>
<svg id="Camada_2" data-name="Camada 2" xmlns="http://www.w3.org/2000/svg" viewBox="0 0 1000 135.96">
  <g id="Camada_1-2" data-name="Camada 1">
    <g>
      <g>
        <polygon points="45.32 0 0 0 90.64 135.96 135.96 135.96 45.32 0"/>
        <g>
          <polygon points="45.32 60.42 0 90.64 0 135.96 45.32 135.96 45.32 60.42"/>
          <polygon points="90.64 30.21 90.64 75.53 135.96 45.32 135.96 0 90.64 30.21"/>
        </g>
      </g>
      <g>
        <path d="M192.96,113.3V22.79h24.44l27.54,82.23h1.94V22.79h12.54V113.3h-24.44l-27.54-82.36h-1.94V113.3h-12.54Z"/>
        <path d="M275.19,41.67l9.83-18.1h14.09l-12.8,18.1h-11.12Zm1.68,71.63V49.81h12.02v63.48h-12.02Z"/>
        <path d="M303.63,82.27v-1.55c0-20.43,14.09-32.71,32.58-32.71s28.45,11.12,30.64,24.31l-11.64,2.46c-1.16-8.79-7.11-16.03-18.88-16.03s-20.69,8.27-20.69,22.24v1.16c0,13.96,8.92,22.24,20.69,22.24s17.71-6.85,19.27-16.16l11.77,2.59c-2.84,13.06-12.93,24.31-31.16,24.31s-32.58-12.28-32.58-32.84Z"/>
        <path d="M377.97,82.4v-1.81c0-20.04,13.58-32.58,32.71-32.58s32.71,12.54,32.71,32.58v1.81c0,20.04-13.58,32.71-32.71,32.71s-32.71-12.67-32.71-32.71Zm53.4-.26v-1.16c0-13.83-8.27-22.24-20.69-22.24s-20.69,8.4-20.69,22.24v1.16c0,13.71,8.4,22.24,20.69,22.24s20.69-8.53,20.69-22.24Z"/>
        <path d="M458.14,113.3V22.79h12.02V113.3h-12.02Z"/>
        <path d="M483.86,95.07c0-12.93,10.21-19.39,24.05-19.39h20.3v-4.4c0-8.02-4.78-13.19-14.61-13.19s-14.61,5.04-16.29,12.41l-11.25-3.62c3.1-10.34,11.51-18.88,27.67-18.88s26.25,8.66,26.25,24.05v27.28c0,2.59,1.29,3.88,3.62,3.88h5.56v10.09h-9.57c-5.82,0-9.83-3.36-9.83-8.79v-.52h-1.81c-2.33,4.53-7.11,11.12-20.3,11.12s-23.79-7.24-23.79-20.04Zm44.35-8.53v-1.42h-19.65c-7.5,0-12.67,3.23-12.67,9.57s5.17,10.34,13.45,10.34c11.12,0,18.88-6.98,18.88-18.49Z"/>
        <path d="M555.36,92.87l11.38-2.59c1.81,11.38,9.57,15,18.49,15s14.09-3.75,14.09-9.44-4.78-7.76-13.58-9.31l-4.78-.91c-12.67-2.2-22.76-7.24-22.76-19.01s9.57-18.62,24.31-18.62,23.66,6.72,26.38,18.1l-11.25,3.1c-1.55-8.27-7.24-11.38-15.13-11.38s-12.54,2.97-12.54,8.4,4.53,7.63,12.02,8.92l4.78,.91c13.58,2.33,24.31,6.46,24.31,19.14s-10.09,19.91-25.86,19.91-27.54-7.11-29.87-22.24Z"/>
        <path d="M654.92,113.3V22.79h24.44l27.54,82.23h1.94V22.79h12.54V113.3h-24.44l-27.54-82.36h-1.94V113.3h-12.54Z"/>
        <path d="M735.72,82.27v-1.55c0-19.65,13.06-32.71,31.68-32.71s30.64,12.54,30.64,31.94v4.78h-50.17c.52,12.28,8.92,19.78,20.3,19.78,10.47,0,15.26-5.43,18.1-11.77l10.09,5.04c-3.75,7.76-11.25,17.33-28.45,17.33-19.27,0-32.19-13.06-32.19-32.84Zm50.04-6.98c-.65-10.47-7.89-16.68-18.49-16.68s-17.71,6.21-19.27,16.68h37.75Z"/>
        <path d="M825.07,113.3l-21.98-63.48h12.8l17.84,54.56h1.94l17.71-54.56h12.8l-21.98,63.48h-19.14Z"/>
        <path d="M871.74,82.27v-1.55c0-19.65,13.06-32.71,31.68-32.71s30.64,12.54,30.64,31.94v4.78h-50.17c.52,12.28,8.92,19.78,20.3,19.78,10.47,0,15.26-5.43,18.1-11.77l10.09,5.04c-3.75,7.76-11.25,17.33-28.44,17.33-19.27,0-32.19-13.06-32.19-32.84Zm50.04-6.98c-.65-10.47-7.89-16.68-18.49-16.68s-17.71,6.21-19.27,16.68h37.75Z"/>
        <path d="M944.27,92.87l11.38-2.59c1.81,11.38,9.57,15,18.49,15s14.09-3.75,14.09-9.44-4.78-7.76-13.58-9.31l-4.78-.91c-12.67-2.2-22.76-7.24-22.76-19.01s9.57-18.62,24.31-18.62,23.66,6.72,26.38,18.1l-11.25,3.1c-1.55-8.27-7.24-11.38-15.13-11.38s-12.54,2.97-12.54,8.4,4.53,7.63,12.02,8.92l4.78,.91c13.58,2.33,24.31,6.46,24.31,19.14s-10.09,19.91-25.86,19.91-27.54-7.11-29.87-22.24Z"/>
      </g>
    </g>
  </g>
</svg>