<?xml version="1.0" encoding="UTF-8"?>
<svg id="Camada_2" data-name="Camada 2" xmlns="http://www.w3.org/2000/svg" xmlns:xlink="http://www.w3.org/1999/xlink" viewBox="0 0 201.06 201.06">
  <defs>
    <style>
      .cls-1 {
        fill: #48dda4;
      }

      .cls-2 {
        clip-path: url(#clippath);
      }

      .cls-3 {
        fill: none;
      }

      .cls-4 {
        fill: #f9f7f8;
      }

      .cls-5 {
        fill: #038356;
      }

      .cls-6 {
        fill: #04b965;
      }
    </style>
    <clipPath id="clippath">
      <rect class="cls-3" width="201.06" height="201.06" rx="45.98" ry="45.98"/>
    </clipPath>
  </defs>
  <g id="Camada_1-2" data-name="Camada 1">
    <g>
      <g class="cls-2">
        <rect class="cls-4" width="201.06" height="201.06" rx="45.98" ry="45.98"/>
      </g>
      <g>
        <path class="cls-6" d="M59.03,158.93h79.93c2.51,0,4.79-1.43,5.89-3.69l19.41-40c2.11-4.34-1.06-9.4-5.89-9.4H78.44c-2.51,0-4.79,1.43-5.89,3.69l-19.41,40c-2.11,4.34,1.06,9.4,5.89,9.4Z"/>
        <path class="cls-5" d="M42.7,95.22H122.63c2.51,0,4.79-1.43,5.89-3.69l19.41-40c2.11-4.34-1.06-9.4-5.89-9.4H62.1c-2.51,0-4.79,1.43-5.89,3.69l-19.41,40c-2.11,4.34,1.06,9.4,5.89,9.4Z"/>
        <path class="cls-1" d="M145.2,105.84h-61.98c-1.86,0-3.07,1.94-2.26,3.61l3.99,8.22c2.11,4.34-1.06,9.4-5.89,9.4h-28.19c-4.83,0-7.99-5.05-5.89-9.4l24.56-50.62c1.09-2.25,3.38-3.69,5.89-3.69h26.32c2.51,0,4.79,1.43,5.89,3.69l6.72,13.86c1.09,2.25,3.38,3.69,5.89,3.69h24.82c4.83,0,7.99,5.05,5.89,9.4l-5.74,11.84Z"/>
      </g>
    </g>
  </g>
</svg>