<?xml version="1.0" encoding="UTF-8"?>
<svg id="Camada_2" data-name="Camada 2" xmlns="http://www.w3.org/2000/svg" viewBox="0 0 1014.13 204.65">
  <defs>
    <style>
      .cls-1 {
        fill: #0f1115;
      }

      .cls-2 {
        fill: #48dda4;
      }

      .cls-3 {
        fill: #038356;
      }

      .cls-4 {
        fill: #04b965;
      }
    </style>
  </defs>
  <g id="Camada_1-2" data-name="Camada 1">
    <g>
      <g>
        <path class="cls-1" d="M368.99,77.06c-1.06-3.44-2.52-6.53-4.37-9.27s-4.06-5.09-6.63-7.04c-2.57-1.95-5.51-3.43-8.83-4.43-3.31-1-6.93-1.5-10.83-1.5-7.01,0-13.26,1.76-18.74,5.29-5.48,3.53-9.78,8.7-12.91,15.52-3.12,6.82-4.68,15.12-4.68,24.89s1.55,18.21,4.65,25.05c3.1,6.84,7.41,12.04,12.94,15.58,5.52,3.55,11.94,5.32,19.25,5.32,6.63,0,12.37-1.28,17.24-3.82,4.86-2.55,8.61-6.17,11.25-10.87,2.63-4.69,3.95-10.21,3.95-16.54l5.35,.83h-35.44v-18.48h52.96v15.68c0,11.18-2.38,20.84-7.14,29-4.76,8.16-11.3,14.44-19.63,18.83-8.33,4.4-17.89,6.6-28.68,6.6-12.02,0-22.57-2.71-31.64-8.13-9.07-5.42-16.15-13.13-21.22-23.13-5.08-10.01-7.62-21.89-7.62-35.66,0-10.54,1.5-19.95,4.49-28.23,3-8.29,7.19-15.33,12.59-21.13,5.4-5.8,11.73-10.22,18.99-13.26s15.17-4.56,23.71-4.56c7.22,0,13.96,1.05,20.2,3.16,6.25,2.1,11.8,5.09,16.67,8.95,4.87,3.87,8.87,8.46,12.01,13.77,3.14,5.31,5.2,11.18,6.18,17.59h-24.09Z"/>
        <path class="cls-1" d="M473.03,124.73v-56.72h23.07v97.9h-22.37v-17.4h-1.02c-2.21,5.48-5.83,9.96-10.87,13.45-5.04,3.48-11.23,5.23-18.58,5.23-6.42,0-12.08-1.43-16.99-4.3s-8.74-7.05-11.5-12.56c-2.76-5.5-4.14-12.16-4.14-19.98v-62.33h23.07v58.76c0,6.2,1.7,11.13,5.1,14.79,3.4,3.66,7.86,5.48,13.38,5.48,3.4,0,6.69-.83,9.88-2.49,3.19-1.66,5.81-4.13,7.87-7.42,2.06-3.29,3.09-7.43,3.09-12.4Z"/>
        <path class="cls-1" d="M557,204.65c-8.29,0-15.4-1.12-21.35-3.35-5.95-2.23-10.73-5.22-14.34-8.96-3.61-3.74-6.12-7.88-7.52-12.43l20.78-5.04c.93,1.91,2.29,3.81,4.08,5.7s4.2,3.46,7.23,4.72c3.04,1.25,6.87,1.88,11.5,1.88,6.54,0,11.96-1.58,16.25-4.75,4.29-3.17,6.44-8.36,6.44-15.58v-18.55h-1.15c-1.19,2.38-2.92,4.82-5.19,7.33-2.27,2.51-5.27,4.61-8.99,6.31s-8.38,2.55-13.99,2.55c-7.52,0-14.33-1.77-20.43-5.32-6.1-3.55-10.94-8.86-14.53-15.93-3.59-7.07-5.39-15.94-5.39-26.61s1.79-19.83,5.39-27.25c3.59-7.41,8.45-13.04,14.56-16.89s12.94-5.77,20.46-5.77c5.74,0,10.46,.97,14.18,2.9s6.68,4.25,8.89,6.95c2.21,2.7,3.89,5.24,5.04,7.62h1.27v-16.19h22.75v99.49c0,8.37-2,15.3-5.99,20.78-3.99,5.48-9.45,9.58-16.38,12.3-6.93,2.72-14.79,4.08-23.58,4.08Zm.19-58.25c4.89,0,9.05-1.19,12.49-3.57,3.44-2.38,6.05-5.8,7.84-10.26,1.78-4.46,2.68-9.81,2.68-16.06s-.88-11.56-2.65-16.19c-1.76-4.63-4.36-8.23-7.78-10.8-3.42-2.57-7.62-3.86-12.59-3.86s-9.43,1.34-12.87,4.02c-3.44,2.68-6.03,6.34-7.78,10.99s-2.61,9.93-2.61,15.84,.88,11.23,2.64,15.71c1.76,4.48,4.38,7.97,7.84,10.45,3.46,2.49,7.72,3.73,12.78,3.73Z"/>
        <path class="cls-1" d="M664.62,167.81c-9.81,0-18.28-2.05-25.4-6.15-7.12-4.1-12.59-9.92-16.41-17.46-3.82-7.54-5.74-16.43-5.74-26.67s1.92-18.92,5.77-26.54c3.84-7.63,9.23-13.58,16.16-17.85,6.92-4.27,15.06-6.41,24.41-6.41,6.03,0,11.74,.97,17.11,2.9s10.13,4.92,14.28,8.95c4.14,4.04,7.4,9.17,9.78,15.39,2.38,6.23,3.57,13.63,3.57,22.21v7.07h-80.24v-15.55h58.13c-.04-4.42-1-8.36-2.87-11.82-1.87-3.46-4.47-6.19-7.81-8.19-3.34-2-7.21-3-11.63-3-4.72,0-8.86,1.14-12.43,3.41-3.57,2.27-6.34,5.25-8.32,8.92-1.98,3.68-2.99,7.7-3.03,12.08v13.58c0,5.69,1.04,10.57,3.12,14.63,2.08,4.06,4.99,7.16,8.73,9.31,3.74,2.15,8.12,3.22,13.13,3.22,3.36,0,6.39-.48,9.11-1.43,2.72-.96,5.08-2.37,7.07-4.24,2-1.87,3.51-4.18,4.53-6.95l21.54,2.42c-1.36,5.69-3.94,10.66-7.74,14.88-3.8,4.23-8.66,7.5-14.56,9.82-5.91,2.32-12.66,3.47-20.27,3.47Z"/>
        <path class="cls-1" d="M771.15,68v17.85h-56.28v-17.85h56.28Zm-42.38-23.45h23.07v91.9c0,3.1,.48,5.47,1.43,7.11,.96,1.64,2.22,2.75,3.79,3.35,1.57,.59,3.31,.89,5.23,.89,1.44,0,2.77-.11,3.98-.32,1.21-.21,2.14-.4,2.77-.57l3.89,18.04c-1.23,.42-2.99,.89-5.26,1.4-2.27,.51-5.05,.81-8.32,.89-5.78,.17-10.98-.71-15.61-2.65-4.63-1.93-8.3-4.94-10.99-9.02-2.7-4.08-4.03-9.18-3.98-15.3V44.55Z"/>
        <path class="cls-1" d="M788.13,165.9V35.37h83.62v19.82h-59.97v35.44h54.24v19.82h-54.24v55.45h-23.65Z"/>
        <path class="cls-1" d="M898.42,54.11c-3.66,0-6.8-1.22-9.43-3.67-2.63-2.44-3.95-5.38-3.95-8.83s1.32-6.45,3.95-8.89c2.63-2.44,5.78-3.66,9.43-3.66s6.85,1.22,9.46,3.66c2.61,2.44,3.92,5.41,3.92,8.89s-1.31,6.38-3.92,8.83c-2.61,2.44-5.77,3.67-9.46,3.67Zm-11.6,111.79V68h23.07v97.9h-23.07Z"/>
        <path class="cls-1" d="M951.29,108.54v57.36h-23.07V68h22.05v16.63h1.15c2.25-5.48,5.85-9.84,10.8-13.07,4.95-3.23,11.08-4.84,18.39-4.84,6.76,0,12.65,1.45,17.69,4.33,5.04,2.89,8.94,7.07,11.73,12.56,2.78,5.48,4.15,12.13,4.11,19.95v62.33h-23.07v-58.76c0-6.54-1.69-11.66-5.07-15.36-3.38-3.7-8.04-5.54-13.99-5.54-4.04,0-7.62,.88-10.74,2.64-3.12,1.76-5.57,4.3-7.33,7.62-1.76,3.31-2.65,7.33-2.65,12.05Z"/>
      </g>
      <g>
        <path class="cls-4" d="M39.4,201.06H177.01c4.31,0,8.25-2.46,10.13-6.35l33.41-68.87c3.63-7.48-1.82-16.18-10.13-16.18H72.81c-4.31,0-8.25,2.46-10.13,6.35L29.26,184.89c-3.63,7.48,1.82,16.18,10.13,16.18Z"/>
        <path class="cls-3" d="M11.28,91.39H148.89c4.31,0,8.25-2.46,10.13-6.35L192.43,16.18c3.63-7.48-1.82-16.18-10.13-16.18H44.69c-4.31,0-8.25,2.46-10.13,6.35L1.14,75.21c-3.63,7.48,1.82,16.18,10.13,16.18Z"/>
        <path class="cls-2" d="M187.74,109.68H81.04c-3.2,0-5.29,3.35-3.9,6.22l6.87,14.16c3.63,7.48-1.82,16.18-10.13,16.18H25.34c-8.31,0-13.76-8.7-10.13-16.18L57.48,42.91c1.88-3.88,5.82-6.35,10.13-6.35h45.31c4.31,0,8.25,2.47,10.13,6.35l11.57,23.86c1.88,3.88,5.82,6.35,10.13,6.35h42.73c8.31,0,13.76,8.7,10.13,16.18l-9.89,20.38Z"/>
      </g>
    </g>
  </g>
</svg>